inDegrees=no
num_controls=7
num_derivatives=13
num_iterations=152
num_multipliers=7
num_parameters=0
num_slacks=7
num_states=26
objective=5.319073
objective_accelerations=0.561003
objective_balance=0.060389
objective_effort=0.535418
objective_height=4.069814
objective_ligament=0.092448
solver_duration=1600.856098
status=Solve_Succeeded
success=true
DataType=double
version=3
OpenSimVersion=4.4-2022-07-23-0e9fedc
endheader
time	/jointset/ground_pelvis/pelvis_tilt/value	/jointset/ground_pelvis/pelvis_tx/value	/jointset/ground_pelvis/pelvis_ty/value	/jointset/hip_l/hip_flexion_l/value	/jointset/hip_l/hip_adduction_l/value	/jointset/hip_l/hip_rotation_l/value	/jointset/back/lumbar_extension/value	/jointset/patellofemoral_l/patellar_flexion_l/value	/jointset/knee_l/knee_flexion_l/value	/jointset/knee_l/knee_adduction_l/value	/jointset/knee_l/knee_rotation_l/value	/jointset/ankle_l/ankle_angle_l/value	/jointset/subtalar_l/subtalar_angle_l/value	/jointset/ground_pelvis/pelvis_tilt/speed	/jointset/ground_pelvis/pelvis_tx/speed	/jointset/ground_pelvis/pelvis_ty/speed	/jointset/hip_l/hip_flexion_l/speed	/jointset/hip_l/hip_adduction_l/speed	/jointset/hip_l/hip_rotation_l/speed	/jointset/back/lumbar_extension/speed	/jointset/patellofemoral_l/patellar_flexion_l/speed	/jointset/knee_l/knee_flexion_l/speed	/jointset/knee_l/knee_adduction_l/speed	/jointset/knee_l/knee_rotation_l/speed	/jointset/ankle_l/ankle_angle_l/speed	/jointset/subtalar_l/subtalar_angle_l/speed	/forceset/tau_hip_flexion_l	/forceset/tau_hip_adduction_l	/forceset/tau_hip_rotation_l	/forceset/tau_knee_flexion_l	/forceset/tau_ankle_angle_l	/forceset/tau_subtalar_angle_l	/forceset/tau_lumbar_extension	lambda_cid13_p0	lambda_cid13_p1	lambda_cid13_p2	lambda_cid13_p3	lambda_cid13_p4	lambda_cid13_p5	lambda_cid14_p0	/jointset/ground_pelvis/pelvis_tilt/accel	/jointset/ground_pelvis/pelvis_tx/accel	/jointset/ground_pelvis/pelvis_ty/accel	/jointset/hip_l/hip_flexion_l/accel	/jointset/hip_l/hip_adduction_l/accel	/jointset/hip_l/hip_rotation_l/accel	/jointset/back/lumbar_extension/accel	/jointset/patellofemoral_l/patellar_flexion_l/accel	/jointset/knee_l/knee_flexion_l/accel	/jointset/knee_l/knee_adduction_l/accel	/jointset/knee_l/knee_rotation_l/accel	/jointset/ankle_l/ankle_angle_l/accel	/jointset/subtalar_l/subtalar_angle_l/accel	gamma_cid13_p0	gamma_cid13_p1	gamma_cid13_p2	gamma_cid13_p3	gamma_cid13_p4	gamma_cid13_p5	gamma_cid14_p0
1.5	0.03554031488880307	0.0114656662231042	0.8322887791907869	0.7073123320834851	-0.3241567741329363	-0.1028453036477099	-0.8015597812346755	0.9294452913872248	0.9294452913870669	-0.07074576944576104	-0.1744925500601265	0.25818786565216	0.06392638470776044	0.2486597519091109	0.1684310623373491	0.5255077320122924	-2.085225275245272	0.08278911204568905	-0.6895095607262588	0.8319156770620623	-2.382765527751009	-2.382765527751544	-0.2142162104007983	-0.0002934828694641877	-0.699031328013378	-0.1845126357353598	-0.1806393351783272	0.02570712072377577	-0.008664751779428258	-0.2617309227536729	0.01722776518737434	0.04237287774276088	0.26961419912136	-35.30025535336672	-14.70191210593634	4.722553307731236	-5.67893279210939	-662.3270679539955	-76.44767894817579	-9.372068936285107	-0.05382380643271224	0.636355956222372	-0.761730694528458	-0.6881202408470063	0.4715234240411176	-0.6112312559476176	2.065718355225138	-1.427344342894621	-1.427344342894617	-0.1803883761472696	-0.01931730124483701	-0.710192763750374	0.4794507331699501	6.164463627995867e-07	2.566891647905808e-07	-3.913698339761897e-06	-3.145686023437473e-07	7.243507303617866e-07	8.415950717509362e-07	4.869551816428777e-07
1.51	0.03802422316835474	0.01318166539679999	0.8375046756770275	0.6864273522456308	-0.3233065577367162	-0.1097671737577088	-0.7931388476935286	0.9055489977608455	0.9055489977606554	-0.07290191690280633	-0.1744962601976467	0.251162693678861	0.06210362279995018	0.2480834221126623	0.174752033987526	0.5175554919588805	-2.091499611806941	0.08725773954797859	-0.6947882659475535	0.8521591217219244	-2.396156072455065	-2.396156072455499	-0.2170250445817682	-0.0004335362607976306	-0.7058774785613071	-0.1800007293348756	-0.1735692048730874	0.02467796203625051	-0.008595337379394677	-0.256701178888183	0.01978454238267893	0.04198235038430869	0.2623776143349766	-34.18999416531558	-14.81023328038442	4.83522999633511	-5.903604085274532	-656.8206571928821	-76.34834575538031	-10.35010868632589	-0.06524881688589459	0.627396418446254	-0.8292276058149554	-0.5563490019408159	0.4356279872689628	-0.4742430497178547	1.98687110447078	-1.244440543334281	-1.24444054331915	-0.3329116492854474	-0.009844696992151571	-0.652963803511081	0.4433154668437746	6.362732139716847e-07	3.443176419064685e-07	-3.946400816038357e-06	-3.068973286819872e-07	7.546325528762547e-07	9.84877982995016e-07	4.948042258140055e-07
1.52	0.04050122589982529	0.01496036001680409	0.8426375983737208	0.6654877773145453	-0.3224114359506792	-0.1167394414988325	-0.7845188369891609	0.8815288924855976	0.8815288924853592	-0.07508650884371695	-0.1745010699368342	0.2440728326794431	0.06032723093081617	0.2472786422907934	0.1809701515990098	0.5089129741027674	-2.096144293893174	0.09177019000811756	-0.6995890869487418	0.8717311097059353	-2.407527857526045	-2.407527857526378	-0.219905107171287	-0.0005134032087113854	-0.7119691332371082	-0.1752386280001497	-0.1664990745678548	0.02364880334869363	-0.008525922979444281	-0.2516714350226959	0.02234131957797279	0.04159182302581239	0.255141029548596	-33.07766282307667	-14.91862125124318	4.947584256088922	-6.182653702511418	-651.3111913444831	-76.33560045711444	-11.3197434503609	-0.09951381151685723	0.6157851484838739	-0.899786255068724	-0.3621893457599821	0.4802880156110472	-0.5156544119262029	1.931427020054881	-1.023592416279303	-1.023592416279275	-0.1946340578570827	-0.007280012560743725	-0.5592935893245983	0.5294897200183812	6.564691430187426e-07	5.08803980855185e-07	-3.953193558818225e-06	-2.881546803833027e-07	7.879052774548038e-07	1.157852610530233e-06	5.062758440009909e-07
1.53	0.04296909693799933	0.01680067955855859	0.8476807460669946	0.6445097734505368	-0.3214710932869249	-0.1237576564073964	-0.7757066627511332	0.8574051869454589	0.8574051869455397	-0.07730011197705502	-0.1745065368491853	0.2369258828357929	0.05859958382866939	0.2462574033098544	0.1870720127367346	0.4996092491178951	-2.099178479883886	0.09630103064329031	-0.7039630470053823	0.8905772726754521	-2.41685870428977	-2.416858704289931	-0.222824595759026	-0.0005519355462854013	-0.7172822550046016	-0.1702503730157535	-0.1593639257193808	0.0224511664180554	-0.008367345827093305	-0.2470113411218648	0.02512740791233414	0.04098732903571669	0.247877827606574	-31.92469437494806	-14.91877743631007	5.017068177132607	-6.423423792423148	-646.114538918833	-76.2009595365576	-12.27609385299116	-0.1090922650149346	0.6040767309479117	-0.961594161336665	-0.2322544058213594	0.4403923640008852	-0.3840816082265698	1.842241151708986	-0.8347548343472539	-0.834754834321457	-0.3419350972956617	0.00134181828988898	-0.4964902053449173	0.4898743384546009	6.770572173079454e-07	7.549517980012816e-07	-3.932457209757962e-06	-2.576486965328863e-07	8.243558354764388e-07	1.362374686624784e-06	5.215964470798251e-07
1.54	0.04542562292164832	0.01870135573859684	0.8526276708021918	0.62350978349061	-0.3204852601615096	-0.1308167738776675	-0.7667098208401475	0.8331987881320982	0.8331987881324924	-0.07954317576389618	-0.174511692752382	0.2297299680274928	0.05692309546652768	0.2450096313835861	0.1930414792557588	0.4896683824874123	-2.100541513078387	0.1008682823396755	-0.7077695992897611	0.908664644297313	-2.424066512170619	-2.424066512170608	-0.2257972378692991	-0.0004512013780334766	-0.7217621261674181	-0.1650068799991851	-0.1522287768709088	0.0212535294874275	-0.00820876867484392	-0.2423512472210311	0.02791349624669914	0.04038283504563728	0.2406146256645488	-30.76835023811289	-14.92008972214698	5.087386511255179	-6.722676505408629	-640.9029487084631	-76.15627895566429	-13.2156199127015	-0.1448204005827282	0.5893062247438636	-1.02721458419081	-0.02795878651775778	0.4875702278535862	-0.4021728574736994	1.779668750523778	-0.5989846397040538	-0.5989846397040125	-0.2052647623639314	0.02057328860461045	-0.3926434683890327	0.5805373264529278	6.858454175765288e-07	1.010373525927308e-06	-3.845314226640642e-06	-2.203783132561563e-07	8.510881444319508e-07	1.545751311969179e-06	5.300670146769134e-07
1.55	0.04786857729854597	0.02066099526859703	0.8574721202858965	0.6025044227126262	-0.3194536725656754	-0.1379119435657414	-0.757536073802726	0.8089308987334226	0.8089308987337888	-0.08181572402268182	-0.1745156579542778	0.2224934074750483	0.05530020554404581	0.2435427729273026	0.1988570411470473	0.4791249368063353	-2.100246125400757	0.1054445061580681	-0.7111816285960998	0.9259449561933005	-2.429146151740408	-2.429146151740206	-0.2287163267492646	-0.0003279864493261255	-0.7254078720633806	-0.1595406655897589	-0.145153366837879	0.01986769645831373	-0.007982736341437192	-0.2379254303973736	0.0306010848224368	0.03964304575481108	0.2334260410370005	-29.68119499339439	-14.83765776338162	5.129647547381929	-6.878976494892802	-636.1169261965964	-76.04699107092225	-14.13573174226872	-0.1533344711931808	0.5732432762660521	-1.082221126325084	0.1010362925281529	0.4423412708433146	-0.2977481368552048	1.681241360035138	-0.4077774356149653	-0.4077774355864214	-0.3357188246446673	0.009621895141090572	-0.3291597647096985	0.5344229841126932	6.810381108213559e-07	1.276480411925861e-06	-3.681659252109756e-06	-1.75314165423022e-07	8.666233403330172e-07	1.7047647005797e-06	5.306451500885122e-07
1.56	0.05029571991028164	0.02267790283849924	0.8622082729995386	0.5815105655609529	-0.3183763841692534	-0.1450386395807978	-0.748193717856164	0.7846231481750708	0.7846231481753624	-0.0841175607450905	-0.1745181057468531	0.2152246655407466	0.05373292966284357	0.241847278349301	0.2044950872361631	0.4680090284749032	-2.098240787818147	0.1100084424568837	-0.7140748646880757	0.9423864261252309	-2.432038744110141	-2.432038744109748	-0.2316549305824915	-0.0001477195151315828	-0.7281984025397322	-0.1538840717433241	-0.1380779568048206	0.01848186342926718	-0.007756704008582475	-0.2334996135736936	0.03328867339819869	0.03890325646408845	0.2262374564094586	-28.58943246429444	-14.75692616380548	5.173204497769515	-7.097989187845483	-631.3040643562446	-76.02396205914138	-15.03486125474002	-0.1905476249263596	0.5538030643094014	-1.141707114261829	0.3140311944783787	0.48511272393828	-0.2984142146010104	1.611900357712359	-0.1615751996930908	-0.1615751996930939	-0.2091677530162411	0.03198368970214477	-0.2216003844667157	0.6186132138547289	6.783991522890473e-07	1.550936443669418e-06	-3.535255166577682e-06	-1.32325339590108e-07	8.901038733455628e-07	1.862673399923358e-06	5.340594747036406e-07
1.57	0.05270479274179535	0.02475021598624335	0.8668305456396607	0.5605451938501396	-0.3172536152920291	-0.1521925894617405	-0.7386913656754354	0.7602972903297782	0.7602972903299484	-0.08644839982510222	-0.1745190836730014	0.2079322008768912	0.05222304327667129	0.2399237466328684	0.2099287813784227	0.4563606473449228	-2.094535739307424	0.1145351507715048	-0.7166525367554651	0.9579308025916567	-2.432759401074613	-2.432759401074371	-0.2345026743039414	-5.615670094770528e-05	-0.7301535904563644	-0.1480708102333733	-0.1310363905725333	0.01711478614538612	-0.007491965803594736	-0.2293765935849743	0.03594288168274808	0.03785872025511671	0.2191144893266658	-27.55997545772491	-14.50927915244119	5.163127611383419	-7.144654577717463	-627.001124000319	-75.76700913678879	-15.91241874237329	-0.1997395293658463	0.5323247146805843	-1.188942892356775	0.4434771344370027	0.4352226267782878	-0.2274792336018433	1.502725176739445	0.02859363050166897	0.02859363047899642	-0.3208712146193763	-0.004097933968448323	-0.1612536793554932	0.5661144398353352	6.784706290353192e-07	1.83582890759423e-06	-3.410414692294123e-06	-9.193066625746952e-08	9.235160777474571e-07	2.019201237683435e-06	5.410190358231808e-07
1.58	0.05509333353928375	0.02687570050050939	0.8713338266124853	0.5396258197154579	-0.3160858247833465	-0.1593703231695035	-0.7290381659529145	0.7359754068299381	0.7359754068299191	-0.08880737504898682	-0.174519514073245	0.2006244291970562	0.0507719758696529	0.2377408715418176	0.2151293605405465	0.4442106950153743	-2.089041272594013	0.1190127687482609	-0.7188316300545959	0.9725559344833395	-2.431243875026042	-2.43124387502595	-0.2372821593417762	-3.82143365710544e-05	-0.731259805736751	-0.1421202759126185	-0.1239948243402023	0.01574770886159641	-0.007227227599291963	-0.2252535735962098	0.03859708996733602	0.03681418404628293	0.2119915222438797	-26.52328248619925	-14.26534727663949	5.156442830150118	-7.262898507643702	-622.6408944234915	-75.59384097686258	-16.76890952451375	-0.2424162998499416	0.5071800682823293	-1.242021354175447	0.6719148350161259	0.4752946563653472	-0.2186984609492238	1.42805144276383	0.2856614029156286	0.2856614029156992	-0.1955160162932629	0.01725959974068001	-0.05180585721744498	0.6460677760155612	6.698572551981223e-07	2.148360523060304e-06	-3.247780902031415e-06	-4.485091612446198e-08	9.474131938547047e-07	2.155533471411968e-06	5.467872246400044e-07
